<svg viewBox="0 0 220 200" xmlns="http://www.w3.org/2000/svg" role="img" aria-label="Rubber duck">
  <defs>
    <radialGradient id="b" cx="38%" cy="30%" r="80%">
      <stop offset="0%" stop-color="#FFE680"/>
      <stop offset="55%" stop-color="#FFD23F"/>
      <stop offset="100%" stop-color="#F4B400"/>
    </radialGradient>
    <radialGradient id="h" cx="35%" cy="28%" r="85%">
      <stop offset="0%" stop-color="#FFEE9C"/>
      <stop offset="60%" stop-color="#FFD23F"/>
      <stop offset="100%" stop-color="#F6BC12"/>
    </radialGradient>
  </defs>
  <path d="M40 150 C 20 150, 14 120, 36 108 C 30 78, 60 60, 96 66 C 120 40, 168 44, 176 78 C 200 86, 200 128, 170 140 C 168 152, 150 160, 120 160 Z" fill="url(#b)"/>
  <circle cx="150" cy="78" r="42" fill="url(#h)"/>
  <path d="M176 74 C 206 66, 218 74, 214 84 C 210 92, 184 92, 176 86 Z" fill="#FFA53B"/>
  <path d="M176 86 C 188 96, 208 96, 212 90 C 214 96, 204 104, 184 102 C 178 100, 175 94, 176 86 Z" fill="#E06A12"/>
  <circle cx="158" cy="66" r="7.5" fill="#1E2A38"/>
  <circle cx="160.5" cy="63" r="2.4" fill="#fff"/>
  <ellipse cx="78" cy="92" rx="26" ry="14" fill="#fff" opacity="0.35"/>
</svg>
